<?xml version="1.0"?>
<svg xmlns="http://www.w3.org/2000/svg" xmlns:xlink="http://www.w3.org/1999/xlink" xmlns:svgjs="http://svgjs.com/svgjs" version="1.1" width="512" height="512" x="0" y="0" viewBox="0 0 512.541 512.541" style="enable-background:new 0 0 512 512" xml:space="preserve" class=""><g><g xmlns="http://www.w3.org/2000/svg"><path d="m172.311 69.86c1.87 0 3.743-.695 5.198-2.094 68.002-67.928 185.951-69.972 256.446-4.756 3.089 2.759 7.831 2.492 10.59-.598 2.759-3.089 2.491-7.831-.598-10.59-76.109-70.405-203.423-68.195-276.837 5.134-2.986 2.869-3.078 7.617-.206 10.602 1.473 1.532 3.439 2.302 5.407 2.302z" fill="#ffffff" data-original="#000000" style="" class=""/><path d="m469.806 79.637c-2.527-3.281-7.234-3.895-10.519-1.368-3.282 2.526-3.895 7.235-1.368 10.518 95.462 121.628 5.131 305.014-149.624 303.704-152.385 1.3-243.38-177.235-152.73-299.542 2.433-3.349 1.692-8.039-1.659-10.475-3.351-2.435-8.04-1.694-10.477 1.656-45.884 60.941-51.231 150.695-14.394 216.331-6.206 3.693-14.106 10.342-16.742 21.138-2.157 8.831-.335 18.526 5.405 28.987-64.96 60.34-115.339 117.949-115.851 118.537-2.309 2.648-2.47 6.545-.387 9.375.568.772 14.136 19.071 32.171 32.16 2.832 2.056 6.718 1.882 9.357-.437 8.808-7.743 17.885-15.943 26.981-24.374 3.037-2.815 3.218-7.561.402-10.599s-7.562-3.217-10.6-.403c-7.413 6.872-14.813 13.587-22.06 20.021-8.832-7.228-16.224-15.5-20.425-20.552 13.105-14.674 55.972-61.819 108.913-111.148 6.04 7.634 15.027 16.622 22.662 22.669-16.223 17.377-39.543 41.656-66.665 67.805-2.982 2.875-3.069 7.623-.194 10.605 2.877 2.984 7.626 3.066 10.604.194 28.256-27.242 52.417-52.468 68.821-70.086 7.643 4.206 14.877 6.323 21.666 6.322 2.527 0 4.995-.293 7.396-.879 10.796-2.636 17.445-10.535 21.138-16.741 194.207 101.278 389.409-127.517 258.179-303.418zm-282.954 305.605c-9.802 2.337-23.388-4.829-39.282-20.723-15.895-15.895-23.061-29.478-20.723-39.283 1.382-5.799 6.053-9.638 9.802-11.866 15.952 24.9 37.169 46.118 62.069 62.07-2.228 3.749-6.068 8.42-11.866 9.802z" fill="#ffffff" data-original="#000000" style="" class=""/><path d="m430.151 315.149c96.447-104.659 20.606-276.855-121.856-276.43-218.98 9.066-218.933 321.103.003 330.143 34.828 0 68.134-10.719 96.315-30.998 3.362-2.419 4.126-7.106 1.707-10.469-2.42-3.362-7.107-4.125-10.469-1.707-97.353 71.408-238.67-1.038-237.625-121.9-.001-82.748 67.32-150.07 150.07-150.07 129.522-.367 198.465 156.155 110.783 251.309-2.795 3.057-2.583 7.801.475 10.596 3.057 2.794 7.801 2.583 10.597-.474z" fill="#ffffff" data-original="#000000" style="" class=""/><path d="m388.089 202.049c-1.449-2.677-4.376-4.212-7.401-3.885l-47.149 5.1-25.046-40.034c-2.637-4.604-11.751-5.701-13.815 2.984l-9.721 45.616-46.051 11.334c-2.957.728-5.18 3.17-5.627 6.182-.446 3.012.971 5.995 3.589 7.549l39.165 23.264-2.035 48.323c-.13 3.088 1.647 5.939 4.478 7.183.971.426 1.996.633 3.014.633 1.949 0 3.868-.76 5.305-2.196l35.062-35.052c12.429 5.793 44.936 20.946 44.936 20.946 2.802 1.306 6.117.758 8.352-1.376 2.234-2.136 2.93-5.423 1.751-8.281l-18.44-44.712 28.847-35.256c1.924-2.357 2.236-5.645.786-8.322zm-44.083 37.546c-1.747 2.136-2.181 5.058-1.129 7.609l12.813 31.069-30.122-14.041c-3.147-1.466-5.864-2.733-9.334-.522-.46.293-.887.636-1.272 1.021l-25.169 25.162 1.414-33.578c.116-2.756-1.291-5.354-3.663-6.764l-27.27-16.198 32.829-8.08c2.791-.687 4.944-2.909 5.543-5.72 0 0 3.852-18.075 6.959-32.655l17.708 28.306c1.524 2.437 4.312 3.786 7.165 3.479l33.612-3.636z" fill="#ffffff" data-original="#000000" style="" class=""/><path d="m355.593 96.459c-4.103-.342-7.741 2.71-8.106 6.825-.013.142-1.371 14.382-10.863 27.708-1.638 2.299-1.846 5.322-.539 7.824 1.305 2.502 3.912 4.059 6.729 4.027.531-.006 10.172-.151 22.371-2.898-1.609 4.823-4.181 10.652-8.261 16.381-2.402 3.374-1.615 8.057 1.759 10.46 3.337 2.387 8.042 1.638 10.46-1.758 11.978-16.818 13.532-34.426 13.593-35.167.581-5.253-5.082-9.595-10.005-7.669-5.744 2.058-11.467 3.368-16.355 4.201 5.167-11.715 6.015-21.323 6.06-21.866.334-4.118-2.726-7.718-6.843-8.068z" fill="#ffffff" data-original="#000000" style="" class=""/><path d="m249.283 171.208c0-12.403-10.099-22.493-22.511-22.493-29.863 1.236-29.855 43.754 0 44.986 12.413 0 22.511-10.091 22.511-22.493zm-30.021 0c0-4.132 3.369-7.493 7.511-7.493 9.94.352 9.938 14.635 0 14.986-4.142 0-7.511-3.362-7.511-7.493z" fill="#ffffff" data-original="#000000" style="" class=""/><path d="m283.98 107.608c0-4.142-3.358-7.5-7.5-7.5-9.928.343-9.926 14.659 0 15 4.143 0 7.5-3.358 7.5-7.5z" fill="#ffffff" data-original="#000000" style="" class=""/><path d="m231.561 283.368c4.142 0 7.5-3.358 7.5-7.5-.343-9.928-14.658-9.926-15 0 0 4.142 3.357 7.5 7.5 7.5z" fill="#ffffff" data-original="#000000" style="" class=""/><path d="m424.851 186.198c0-4.142-3.358-7.5-7.5-7.5-9.928.343-9.926 14.659 0 15 4.142 0 7.5-3.358 7.5-7.5z" fill="#ffffff" data-original="#000000" style="" class=""/></g></g></svg>
