<?xml version="1.0"?>
<svg xmlns="http://www.w3.org/2000/svg" xmlns:xlink="http://www.w3.org/1999/xlink" xmlns:svgjs="http://svgjs.com/svgjs" version="1.1" width="512" height="512" x="0" y="0" viewBox="0 0 512 512" style="enable-background:new 0 0 512 512" xml:space="preserve"><g><g xmlns="http://www.w3.org/2000/svg"><path d="m457 0h-402c-30.327 0-55 24.673-55 55v300c0 30.327 24.673 55 55 55h125.465c-3.233 30.422-20.994 57.193-48.145 72h-26.32c-8.284 0-15 6.716-15 15s6.716 15 15 15h300c8.284 0 15-6.716 15-15s-6.716-15-15-15h-26.319c-27.152-14.807-44.912-41.578-48.145-72h125.464c30.327 0 55-24.673 55-55v-300c0-30.327-24.673-55-55-55zm-124.792 482h-152.416c4.718-5.308 8.989-11.036 12.757-17.133 10.296-16.66 16.435-35.453 18.023-54.867h90.856c1.587 19.414 7.726 38.207 18.023 54.867 3.768 6.097 8.039 11.825 12.757 17.133zm149.792-127c0 13.785-11.215 25-25 25h-402c-13.785 0-25-11.215-25-25v-25h211v15c0 8.284 6.716 15 15 15s15-6.716 15-15v-15h211zm-284.006-140.471-7.484-12.962 25.981-15 7.422 12.855c3.227 5.588 9.67 8.486 15.989 7.197 10.534-2.149 21.663-2.149 32.197 0 6.318 1.29 12.762-1.608 15.989-7.197l7.422-12.855 25.981 15-7.484 12.962c-3.23 5.594-2.516 12.627 1.772 17.458 7.261 8.18 12.67 17.517 16.078 27.752 2.041 6.127 7.773 10.261 14.232 10.261h14.911v30h-52.141c1.399-4.841 2.141-9.883 2.141-15 0-30.327-24.673-55-55-55s-55 24.673-55 55c0 5.117.742 10.159 2.141 15h-52.141v-30h14.912c6.458 0 12.191-4.134 14.232-10.261 3.408-10.235 8.817-19.572 16.078-27.752 4.287-4.831 5.002-11.864 1.772-17.458zm83.006 70.471c0 5.498-1.812 10.679-5.169 15h-39.662c-3.357-4.321-5.169-9.502-5.169-15 0-13.785 11.215-25 25-25s25 11.215 25 25zm201 15h-91v-45c0-8.284-6.716-15-15-15h-19.678c-3.058-6.81-6.803-13.274-11.209-19.348l9.859-17.076c1.989-3.445 2.528-7.54 1.499-11.382-1.029-3.843-3.543-7.119-6.989-9.108l-51.962-30c-3.445-1.989-7.539-2.528-11.382-1.499s-7.119 3.543-9.108 6.989l-9.811 16.992c-7.448-.757-14.988-.757-22.437 0l-9.811-16.992c-1.989-3.445-5.265-5.959-9.108-6.989-3.843-1.031-7.937-.491-11.382 1.499l-51.962 30c-3.445 1.989-5.959 5.265-6.989 9.108s-.491 7.938 1.499 11.382l9.859 17.076c-4.407 6.074-8.152 12.538-11.209 19.348h-19.679c-8.284 0-15 6.716-15 15v45h-91v-245c0-13.785 11.215-25 25-25h402c13.785 0 25 11.215 25 25z" fill="#ffffff" data-original="#000000" style=""/><path d="m437 60h-121c-8.284 0-15 6.716-15 15s6.716 15 15 15h121c8.284 0 15-6.716 15-15s-6.716-15-15-15z" fill="#ffffff" data-original="#000000" style=""/><path d="m437 120h-81c-8.284 0-15 6.716-15 15s6.716 15 15 15h81c8.284 0 15-6.716 15-15s-6.716-15-15-15z" fill="#ffffff" data-original="#000000" style=""/></g></g></svg>
